<svg width="16" height="16" viewBox="0 0 16 16" fill="none" xmlns="http://www.w3.org/2000/svg">
<path d="M6.66071 9.32143C6.66071 10.0107 6.16071 10.2286 5.54643 10.2286H3.93571V8.33929H5.57857C6.24286 8.34286 6.66071 8.61786 6.66071 9.32143V9.32143ZM6.38571 6.38214C6.38571 5.75 5.89643 5.6 5.35357 5.6H3.93929V7.2H5.46429C6.00357 7.2 6.38571 6.96429 6.38571 6.38214V6.38214ZM11.1107 7.21071C10.4571 7.21071 10.0214 7.61786 9.97857 8.27143H12.2C12.1393 7.61071 11.7964 7.21071 11.1107 7.21071ZM16 1.71429V14.2857C16 15.2321 15.2321 16 14.2857 16H1.71429C0.767857 16 0 15.2321 0 14.2857V1.71429C0 0.767857 0.767857 0 1.71429 0H14.2857C15.2321 0 16 0.767857 16 1.71429ZM9.70357 5.46429H12.4821V4.78929H9.70357V5.46429ZM8.16786 9.40357C8.16786 8.54286 7.76071 7.8 6.91786 7.56071C7.53214 7.26786 7.85357 6.92857 7.85357 6.23929C7.85357 4.875 6.83571 4.54286 5.66071 4.54286H2.42857V11.4H5.75357C7 11.3929 8.16786 10.7964 8.16786 9.40357V9.40357ZM13.5714 8.875C13.5714 7.40714 12.7107 6.18214 11.1571 6.18214C9.64286 6.18214 8.61786 7.31786 8.61786 8.81072C8.61786 10.3571 9.59286 11.4179 11.1571 11.4179C12.3429 11.4179 13.1107 10.8857 13.4821 9.74643H12.2786C12.1464 10.1714 11.6143 10.3929 11.2 10.3929C10.4 10.3929 9.98214 9.925 9.98214 9.13214H13.5607C13.5643 9.05 13.5714 8.96071 13.5714 8.875Z" fill="white"/>
</svg>
