<svg width="17" height="16" viewBox="0 0 17 16" fill="none" xmlns="http://www.w3.org/2000/svg">
<path d="M8.20255 0C3.67064 0 1.1972e-06 3.67064 1.1972e-06 8.20255C-0.000929151 9.92449 0.540396 11.603 1.54718 13C2.55396 14.3969 3.97508 15.4414 5.60891 15.9851C6.01903 16.0565 6.17242 15.8104 6.17242 15.5947C6.17242 15.4003 6.16176 14.7547 6.16176 14.0674C4.10128 14.4472 3.56811 13.5654 3.40406 13.1036C3.31137 12.8673 2.91191 12.1398 2.5633 11.9446C2.27621 11.7912 1.86608 11.4114 2.55264 11.4015C3.199 11.3909 3.65998 11.9962 3.81419 12.2423C4.55242 13.4825 5.73194 13.1339 6.20277 12.919C6.27495 12.3859 6.48986 12.0274 6.72609 11.8223C4.90103 11.6173 2.99393 10.9094 2.99393 7.77192C2.99393 6.87948 3.31137 6.14207 3.83469 5.56707C3.75267 5.36201 3.46558 4.52125 3.91672 3.3934C3.91672 3.3934 4.60327 3.17849 6.17242 4.23498C6.84016 4.04965 7.53008 3.95637 8.22306 3.95773C8.92028 3.95773 9.61749 4.0496 10.2737 4.23416C11.842 3.16783 12.5294 3.39422 12.5294 3.39422C12.9805 4.52207 12.6934 5.36283 12.6114 5.56789C13.1339 6.14207 13.4522 6.86964 13.4522 7.77192C13.4522 10.9201 11.5352 11.6173 9.71018 11.8223C10.0071 12.0783 10.2639 12.5704 10.2639 13.3398C10.2639 14.4365 10.2532 15.3183 10.2532 15.5955C10.2532 15.8104 10.4074 16.0663 10.8175 15.9843C12.4458 15.4346 13.8606 14.3881 14.8629 12.9921C15.8653 11.5962 16.4046 9.92108 16.4051 8.20255C16.4051 3.67064 12.7345 0 8.20255 0Z" fill="white"/>
</svg>
