<svg width="22" height="18" viewBox="0 0 22 18" fill="none" xmlns="http://www.w3.org/2000/svg">
<path d="M13.2795 0.054525C13.4613 0.1054 13.6314 0.191613 13.7799 0.308236C13.9284 0.424858 14.0524 0.569604 14.145 0.734198C14.2375 0.898793 14.2967 1.08001 14.3191 1.26749C14.3416 1.45497 14.3269 1.64504 14.2758 1.82683L10.0309 16.9508C9.92802 17.3178 9.68354 17.6289 9.35126 17.8157C9.01898 18.0024 8.62612 18.0495 8.2591 17.9466C7.89209 17.8437 7.58098 17.5993 7.39422 17.267C7.20747 16.9347 7.16036 16.5418 7.26326 16.1748L11.5082 1.04893C11.5591 0.86718 11.6454 0.697254 11.7621 0.548859C11.8788 0.400465 12.0235 0.27651 12.1881 0.184076C12.3527 0.0916424 12.5339 0.0325407 12.7213 0.0101475C12.9087 -0.0122457 13.0987 0.00250854 13.2805 0.0535671L13.2795 0.054525ZM6.51602 3.92006C6.78512 4.1895 6.93627 4.55473 6.93627 4.93554C6.93627 5.31635 6.78512 5.68158 6.51602 5.95102L3.46957 9.00034L6.51793 12.0487C6.78738 12.3183 6.93871 12.6839 6.93862 13.065C6.93853 13.4461 6.78703 13.8117 6.51745 14.0811C6.24788 14.3505 5.8823 14.5019 5.50116 14.5018C5.12001 14.5017 4.7545 14.3502 4.48506 14.0806L0.420256 10.0158C0.151153 9.74638 0 9.38115 0 9.00034C0 8.61953 0.151153 8.2543 0.420256 7.98486L4.4841 3.92006C4.61755 3.78652 4.776 3.68059 4.95041 3.60832C5.12481 3.53605 5.31175 3.49885 5.50054 3.49885C5.68932 3.49885 5.87626 3.53605 6.05067 3.60832C6.22507 3.68059 6.38257 3.78652 6.51602 3.92006ZM15.0231 5.95102C14.8819 5.81947 14.7686 5.66082 14.6901 5.48455C14.6116 5.30828 14.5693 5.11799 14.5659 4.92505C14.5625 4.7321 14.598 4.54044 14.6703 4.36151C14.7426 4.18258 14.8501 4.02004 14.9866 3.88358C15.123 3.74713 15.2856 3.63955 15.4645 3.56728C15.6435 3.49501 15.8351 3.45951 16.0281 3.46292C16.221 3.46632 16.4113 3.50855 16.5876 3.5871C16.7638 3.66564 16.9225 3.77888 17.054 3.92006L21.1188 7.9839C21.3882 8.25338 21.5396 8.61882 21.5396 8.99986C21.5396 9.3809 21.3882 9.74635 21.1188 10.0158L17.055 14.0806C16.9216 14.2141 16.7632 14.32 16.5888 14.3923C16.4145 14.4645 16.2276 14.5017 16.0389 14.5018C15.8502 14.5018 15.6633 14.4647 15.4889 14.3925C15.3145 14.3203 15.1561 14.2145 15.0226 14.0811C14.8891 13.9477 14.7832 13.7893 14.711 13.6149C14.6387 13.4406 14.6015 13.2537 14.6014 13.065C14.6014 12.8763 14.6385 12.6894 14.7107 12.515C14.7829 12.3406 14.8887 12.1822 15.0221 12.0487L18.0705 9.00034L15.0231 5.95102Z" fill="#6B00E0"/>
</svg>
