<svg width="24" height="24" viewBox="0 0 24 24" fill="none" xmlns="http://www.w3.org/2000/svg">
<g clip-path="url(#clip0_3464_33)">
<mask id="mask0_3464_33" style="mask-type:luminance" maskUnits="userSpaceOnUse" x="0" y="0" width="25" height="24">
<path d="M24.0061 0H0V24H24.0061V0Z" fill="white"/>
</mask>
<g mask="url(#mask0_3464_33)">
<path d="M0.00585938 6.15009C8.02405 6.15009 15.9998 6.15009 23.9937 6.15009C23.9998 6.24714 24.0059 6.33205 24.0059 6.41696C24.0059 11.2206 24.0059 16.0303 24.0059 20.834C24.0059 22.4473 22.993 23.6785 21.4403 23.9575C21.2705 23.9879 21.0946 23.9939 20.9187 23.9939C14.9808 23.9939 9.043 24 3.09911 23.9939C1.54642 23.9939 0.327315 22.9629 0.0483158 21.4405C0.0119246 21.2343 0.00585938 21.022 0.00585938 20.8158C0.00585938 16.0182 0.00585938 11.2206 0.00585938 6.42303C0.00585938 6.33811 0.00585938 6.2532 0.00585938 6.15009ZM14.2045 9.83774C14.2045 9.37678 13.9558 9.05532 13.5858 8.95828C13.1188 8.83091 12.7064 9.09172 12.5426 9.61939C12.0453 11.2328 11.554 12.8461 11.0627 14.4594C10.6564 15.7817 10.25 17.1039 9.84967 18.4261C9.69804 18.9295 9.97098 19.4086 10.4623 19.5118C10.9232 19.6149 11.3114 19.3419 11.4812 18.8021C12.3607 15.9272 13.2401 13.0462 14.1257 10.1653C14.156 10.044 14.1863 9.90445 14.2045 9.83774ZM17.7163 14.229C16.9702 14.975 16.2424 15.6907 15.5267 16.4124C15.1689 16.7763 15.1628 17.2555 15.5025 17.6012C15.83 17.9409 16.3455 17.953 16.6973 17.6012C17.6253 16.6793 18.5532 15.7574 19.4752 14.8294C19.8209 14.4776 19.8269 13.9803 19.4812 13.6346C18.5593 12.7066 17.6435 11.7726 16.6973 10.8688C16.5396 10.7172 16.2667 10.6384 16.0423 10.6262C15.7026 10.608 15.4539 10.8203 15.3205 11.1418C15.181 11.4875 15.272 11.7908 15.5267 12.0516C16.2485 12.7672 16.9702 13.489 17.7163 14.229ZM6.27727 14.2108C6.36825 14.138 6.44103 14.0834 6.50168 14.0227C7.15673 13.3677 7.81177 12.7187 8.46074 12.0637C8.67303 11.8514 8.78827 11.6088 8.73368 11.3116C8.67303 10.9841 8.48501 10.7536 8.16961 10.6505C7.83603 10.5474 7.53277 10.6262 7.2841 10.881C6.38645 11.7786 5.48273 12.6823 4.58508 13.58C4.17265 13.9924 4.17871 14.4716 4.59721 14.8901C5.39782 15.6907 6.19843 16.4913 6.99903 17.298C7.10821 17.4071 7.21738 17.5224 7.33262 17.6315C7.58129 17.856 7.86635 17.9227 8.18175 17.8135C8.49714 17.7043 8.68516 17.4738 8.73974 17.1463C8.79433 16.837 8.6609 16.5883 8.44861 16.376C7.73292 15.6725 7.02329 14.9628 6.27727 14.2108Z" fill="#7F22FE"/>
<path d="M0 4.44579C0.0485216 3.61486 -0.109174 2.78393 0.200152 1.98332C0.642911 0.824867 1.72858 0.0424564 2.96588 0.0060652C3.0326 0 3.09932 0 3.1721 0C9.05534 0 14.9447 0 20.8279 0C22.2714 0 23.4117 0.794541 23.8423 2.10462C23.9272 2.35936 23.9757 2.6323 23.9879 2.89917C24.0121 3.40864 23.9939 3.92419 23.9939 4.45186C15.9939 4.44579 8.01213 4.44579 0 4.44579Z" fill="#7F22FE"/>
</g>
</g>
<defs>
<clipPath id="clip0_3464_33">
<rect width="24" height="24" fill="white"/>
</clipPath>
</defs>
</svg>
