<svg width="24" height="24" viewBox="0 0 24 24" fill="none" xmlns="http://www.w3.org/2000/svg">
<g clip-path="url(#clip0_3464_21)">
<mask id="mask0_3464_21" style="mask-type:luminance" maskUnits="userSpaceOnUse" x="0" y="0" width="24" height="24">
<path d="M23.9857 0H0V24H23.9857V0Z" fill="white"/>
</mask>
<g mask="url(#mask0_3464_21)">
<path d="M23.9785 17.151C22.5701 17.151 21.2045 17.151 19.839 17.151C18.2162 17.151 17.1295 18.2449 17.1223 19.8749C17.1223 21.2404 17.1223 22.5987 17.1223 23.9929C17.0222 24 16.9365 24.0071 16.8507 24.0071C15.5495 24.0071 14.2483 24.0071 12.9472 24.0071C11.3743 24.0071 10.2734 22.899 10.2734 21.3262C10.2734 17.4013 10.2734 13.4763 10.2734 9.55137C10.2734 7.98569 11.3815 6.87756 12.9543 6.87756C15.7282 6.87756 18.5021 6.87756 21.276 6.87756C22.8775 6.87756 23.9713 7.97854 23.9713 9.58712C23.9713 12.0107 23.9713 14.4415 23.9713 16.8651C23.9785 16.9508 23.9785 17.0366 23.9785 17.151ZM17.1509 10.3021C16.3145 10.3021 15.478 10.3021 14.6344 10.3021C14.0839 10.3021 13.705 10.6524 13.6978 11.1528C13.6907 11.6461 14.0768 12.0179 14.6201 12.0179C16.2859 12.0179 17.9516 12.0179 19.6246 12.0179C20.1679 12.0179 20.554 11.6533 20.5468 11.1528C20.5468 10.6595 20.1536 10.3021 19.6103 10.3021C18.7953 10.2949 17.9731 10.3021 17.1509 10.3021ZM16.2644 15.4352C16.8149 15.4352 17.3726 15.4352 17.923 15.4352C18.4592 15.4352 18.8453 15.0634 18.8381 14.563C18.831 14.0769 18.4449 13.7194 17.923 13.7194C16.8292 13.7194 15.7282 13.7194 14.6344 13.7194C14.0911 13.7194 13.705 14.0769 13.705 14.5773C13.705 15.0706 14.0911 15.4281 14.6344 15.4352C15.1777 15.4424 15.7211 15.4352 16.2644 15.4352Z" fill="#7F22FE"/>
<path d="M0 18.8525C0 17.7444 0 16.6434 0 15.5353C0 14.4486 0.722073 13.7265 1.80876 13.7265C3.46023 13.7265 5.10456 13.7265 6.75603 13.7265C7.82842 13.7265 8.55764 14.4486 8.55764 15.5139C8.55764 17.7444 8.55764 19.9678 8.55764 22.1984C8.55764 23.2708 7.82842 23.9929 6.76318 23.9929C5.10456 23.9929 3.44593 23.9929 1.78731 23.9929C0.722073 23.9929 0 23.2636 0 22.1912C0 21.0831 0 19.9678 0 18.8525ZM5.1403 18.8883C5.1403 18.6023 5.14745 18.3164 5.1403 18.0304C5.13315 17.5299 4.76139 17.151 4.28954 17.151C3.81055 17.151 3.43878 17.5228 3.43164 18.0232C3.42449 18.588 3.42449 19.1457 3.43164 19.7105C3.43878 20.2038 3.81769 20.5827 4.29669 20.5755C4.76139 20.5684 5.12601 20.2038 5.1403 19.7176C5.14745 19.4388 5.1403 19.16 5.1403 18.8883Z" fill="#7F22FE"/>
<path d="M7.59981 11.8892C7.31384 11.9392 7.08507 12.0107 6.86344 12.0107C5.14047 12.0179 3.41751 12.025 1.70169 12.0107C0.765135 12.0036 0.0144643 11.2601 0.00731506 10.3235C0.000165815 7.44949 0.000165815 4.58264 0.00731506 1.70865C0.00731506 0.786399 0.757985 0.0357292 1.67309 0.02858C3.41036 0.0142815 5.15477 0.0214307 6.89204 0.02858C7.09937 0.02858 7.30669 0.0929231 7.58551 0.142968C7.49257 0.257356 7.43538 0.328848 7.37819 0.393191C6.23431 1.65145 5.08328 2.91687 3.9394 4.17514C2.90276 5.31187 2.90991 6.72027 3.9394 7.84985C5.08328 9.10096 6.22001 10.3592 7.35674 11.6104C7.42108 11.6819 7.47828 11.7534 7.59981 11.8892Z" fill="#7F22FE"/>
<path d="M19.6893 0.035731C19.6893 1.74439 19.6893 3.43876 19.6893 5.14743C19.5964 5.15458 19.5106 5.16173 19.4248 5.16173C17.616 5.16173 15.8073 5.16888 13.9985 5.15458C13.6982 5.15458 13.3765 5.07594 13.0977 4.96155C12.5115 4.72563 11.9395 4.45396 11.3676 4.18943C10.6741 3.87487 10.2881 3.34582 10.2881 2.58086C10.2952 1.83019 10.6813 1.30829 11.3604 1.00087C11.9324 0.743506 12.5043 0.471835 13.0906 0.228761C13.3408 0.128671 13.6196 0.035731 13.8841 0.035731C15.7715 0.0214325 17.6661 0.0285818 19.5535 0.0285818C19.5892 0.0285818 19.625 0.0285818 19.6893 0.035731Z" fill="#7F22FE"/>
<path d="M8.5506 1.73009C8.5506 4.59693 8.5506 7.45663 8.5506 10.3735C8.35042 10.1591 8.18599 9.97317 8.02156 9.79444C7.07071 8.75065 6.12701 7.714 5.17616 6.67021C4.79725 6.24841 4.78295 5.8123 5.14756 5.4048C6.23425 4.20372 7.32808 3.00265 8.42191 1.80158C8.45051 1.76583 8.47196 1.73009 8.49341 1.68719C8.51486 1.70149 8.52915 1.71579 8.5506 1.73009Z" fill="#7F22FE"/>
<path d="M21.4189 5.1546C21.4189 3.43878 21.4189 1.74441 21.4189 0C21.8622 0.028597 22.3054 0.00714924 22.7201 0.100089C23.4279 0.250223 23.9498 0.922252 23.9712 1.65147C23.9926 2.28061 23.9926 2.91689 23.9712 3.54602C23.9426 4.38248 23.2706 5.08311 22.427 5.1546C22.0981 5.17605 21.7692 5.1546 21.4189 5.1546Z" fill="#7F22FE"/>
<path d="M23.3705 18.8597C21.8548 20.3682 20.3535 21.8695 18.8593 23.3709C18.8593 23.3709 18.845 23.3208 18.845 23.2779C18.845 22.0983 18.8378 20.9258 18.845 19.7462C18.845 19.2529 19.1882 18.8668 19.66 18.8668C20.8968 18.8525 22.1336 18.8597 23.3705 18.8597Z" fill="#7F22FE"/>
</g>
</g>
<defs>
<clipPath id="clip0_3464_21">
<rect width="24" height="24" fill="white"/>
</clipPath>
</defs>
</svg>
