<svg width="49" height="49" viewBox="0 0 49 49" fill="none" xmlns="http://www.w3.org/2000/svg">
<circle cx="24.5" cy="24.5" r="24.5" fill="#222222"/>
<path d="M35.75 14H13.75C12.2375 14 11.0137 15.2375 11.0137 16.75L11 33.25C11 34.7625 12.2375 36 13.75 36H35.75C37.2625 36 38.5 34.7625 38.5 33.25V16.75C38.5 15.2375 37.2625 14 35.75 14ZM13.75 20.875H28.1875V25.6875H13.75V20.875ZM13.75 28.4375H28.1875V33.25H15.125C14.3687 33.25 13.75 32.6313 13.75 31.875V28.4375ZM34.375 33.25H30.9375V20.875H35.75V31.875C35.75 32.6313 35.1313 33.25 34.375 33.25Z" fill="white"/>
</svg>
