<svg width="18" height="18" viewBox="0 0 18 18" fill="none" xmlns="http://www.w3.org/2000/svg">
<path d="M5 0C5.79565 0 6.55871 0.316071 7.12132 0.87868C7.68393 1.44129 8 2.20435 8 3V4C8 4.79565 7.68393 5.55871 7.12132 6.12132C6.55871 6.68393 5.79565 7 5 7H3C2.20435 7 1.44129 6.68393 0.87868 6.12132C0.316071 5.55871 0 4.79565 0 4V3C0 2.20435 0.316071 1.44129 0.87868 0.87868C1.44129 0.316071 2.20435 0 3 0H5ZM5 9C5.79565 9 6.55871 9.31607 7.12132 9.87868C7.68393 10.4413 8 11.2044 8 12V15C8 15.7956 7.68393 16.5587 7.12132 17.1213C6.55871 17.6839 5.79565 18 5 18H3C2.20435 18 1.44129 17.6839 0.87868 17.1213C0.316071 16.5587 0 15.7956 0 15V12C0 11.2044 0.316071 10.4413 0.87868 9.87868C1.44129 9.31607 2.20435 9 3 9H5ZM15 0C15.7956 0 16.5587 0.316071 17.1213 0.87868C17.6839 1.44129 18 2.20435 18 3V15C18 15.7956 17.6839 16.5587 17.1213 17.1213C16.5587 17.6839 15.7956 18 15 18H13C12.2044 18 11.4413 17.6839 10.8787 17.1213C10.3161 16.5587 10 15.7956 10 15V3C10 2.20435 10.3161 1.44129 10.8787 0.87868C11.4413 0.316071 12.2044 0 13 0H15Z" fill="#6B00E0"/>
</svg>
