<svg width="25" height="24" viewBox="0 0 25 24" fill="none" xmlns="http://www.w3.org/2000/svg">
<g clip-path="url(#clip0_3464_11)">
<mask id="mask0_3464_11" style="mask-type:luminance" maskUnits="userSpaceOnUse" x="0" y="0" width="25" height="24">
<path d="M24.0125 0H0V24H24.0125V0Z" fill="white"/>
</mask>
<g mask="url(#mask0_3464_11)">
<path d="M20.5314 24C20.4249 23.9749 20.3248 23.9436 20.2183 23.9186C19.7237 23.8059 19.2603 23.5993 18.8971 23.2486C18.3587 22.7289 17.8515 22.1779 17.3506 21.6582C18.7719 20.2369 20.2183 18.7905 21.6835 17.3253C21.6897 17.3316 21.7398 17.3692 21.7837 17.4067C22.2157 17.8388 22.654 18.2583 23.0735 18.6966C23.9438 19.6045 24.2256 20.6752 23.8311 21.8649C23.4429 23.0357 22.6039 23.7308 21.3829 23.9499C21.3454 23.9562 21.3141 23.9749 21.2765 23.9875C21.0323 24 20.7818 24 20.5314 24Z" fill="#7F22FE"/>
<path d="M18.0267 13.7125C18.8908 14.5766 19.7549 15.4406 20.6064 16.2922C19.1788 17.7198 17.7324 19.1662 16.3111 20.5875C15.4595 19.736 14.5892 18.8656 13.7314 18.0078C15.1465 16.5927 16.5866 15.1464 18.0267 13.7125Z" fill="#7F22FE"/>
<path d="M0 18.8406C0.118967 18.3585 0.432038 18.0141 0.770154 17.6697C6.48056 11.9656 12.1847 6.26138 17.8889 0.55723C18.3898 0.0563165 18.9596 -0.137787 19.6358 0.100147C19.8549 0.175284 20.0741 0.319296 20.2432 0.482093C21.3452 1.56532 22.4409 2.66107 23.5304 3.75681C24.1691 4.40174 24.1691 5.35347 23.5429 6.01092C23.2236 6.34278 22.8917 6.66211 22.5536 7.00023C22.4847 6.93761 22.4221 6.88126 22.3658 6.82491C21.6457 6.10484 20.9319 5.38478 20.2056 4.67724C20.0866 4.56454 19.9301 4.45809 19.7798 4.41426C19.473 4.3266 19.1725 4.47688 19.0222 4.73985C18.8719 5.0091 18.9095 5.34721 19.1349 5.58515C19.5168 5.97962 19.905 6.36156 20.2932 6.74351C20.7065 7.15676 21.126 7.56375 21.5267 7.95822C21.1573 8.32765 20.8067 8.67828 20.4185 9.06649C20.312 8.95379 20.1805 8.80351 20.0365 8.6595C19.7235 8.34017 19.4104 8.0271 19.0911 7.71403C18.7905 7.426 18.3647 7.426 18.083 7.70777C17.8137 7.98327 17.8137 8.40904 18.0955 8.69707C18.54 9.15415 19.0034 9.59871 19.4354 10.0308C19.0723 10.3939 18.7216 10.7446 18.3522 11.1203C18.3209 11.0952 18.2645 11.0389 18.2019 10.9825C17.4631 10.2437 16.7242 9.49853 15.9791 8.76594C15.7287 8.51549 15.4344 8.47166 15.1464 8.61567C14.8834 8.74716 14.7143 9.02266 14.7769 9.31069C14.8145 9.47974 14.9084 9.66759 15.0337 9.79282C15.7475 10.5254 16.4738 11.2455 17.2001 11.9656C17.2627 12.0282 17.3379 12.0657 17.3942 12.1096C17.006 12.4978 16.6554 12.8484 16.2797 13.2241C15.9541 12.8985 15.6222 12.5604 15.2904 12.2285C15.1777 12.1158 15.0712 12.0031 14.9585 11.8967C14.6454 11.5961 14.2134 11.5836 13.9316 11.8591C13.6499 12.1409 13.6561 12.5729 13.963 12.886C14.3512 13.2805 14.7456 13.6687 15.1401 14.0631C15.1902 14.1132 15.2528 14.1508 15.2779 14.1696C14.9147 14.5327 14.5703 14.8771 14.2009 15.2465C14.1884 15.234 14.1258 15.1777 14.0694 15.1213C13.3368 14.395 12.6105 13.6624 11.8842 12.9361C11.6525 12.7044 11.3833 12.6167 11.0764 12.7294C10.6068 12.9048 10.4816 13.4933 10.8322 13.869C11.1203 14.1758 11.4271 14.4701 11.7214 14.7644C12.2223 15.2653 12.7295 15.7662 13.2053 16.2484C12.8422 16.6115 12.4853 16.9684 12.1158 17.3379C11.7026 16.9183 11.2518 16.4675 10.8009 16.0167C10.5881 15.8038 10.3376 15.7349 10.0496 15.8414C9.77407 15.9416 9.62379 16.1482 9.59249 16.4425C9.56744 16.6867 9.66762 16.8808 9.84294 17.0498C10.2812 17.4819 10.7195 17.9202 11.1328 18.3272C10.7696 18.6903 10.4127 19.0472 10.037 19.4229C9.56744 18.9533 9.06653 18.4399 8.55935 17.9327C8.27759 17.6509 7.99583 17.3692 7.71406 17.0874C7.38221 16.7618 6.96269 16.7493 6.67467 17.0436C6.38664 17.3316 6.41169 17.7636 6.73102 18.083C7.45108 18.8093 8.17741 19.5293 8.90373 20.2557C8.96635 20.3183 9.03522 20.3684 9.08531 20.4059C8.70963 20.7816 8.35899 21.1323 7.99583 21.4954C7.97078 21.4766 7.92069 21.4328 7.8706 21.389C7.46987 20.9945 7.0754 20.5938 6.67467 20.1993C6.35534 19.8862 5.91704 19.8737 5.63527 20.168C5.35977 20.456 5.37855 20.8818 5.68536 21.1949C6.12366 21.6394 6.56822 22.0777 7.03157 22.5348C6.41795 23.0545 6.0047 23.7871 5.16567 23.9937C4.99661 23.9937 4.82129 23.9937 4.65223 23.9937C4.18263 23.8873 3.83825 23.5993 3.50639 23.2611C2.59849 22.3345 1.67806 21.4203 0.757631 20.5124C0.406992 20.1868 0.106444 19.8362 0 19.3603C0 19.185 0 19.0159 0 18.8406Z" fill="#7F22FE"/>
<path d="M0 0.143972C0.106444 0.0187439 0.225411 -0.00630174 0.394469 0.0312668C1.7532 0.381906 3.11192 0.732545 4.47691 1.0644C5.61023 1.34617 6.48056 2.00988 7.21315 2.84265C5.7605 4.30156 4.31411 5.74794 2.8552 7.20685C1.96608 6.46174 1.3149 5.52878 1.02687 4.35164C0.726324 3.09309 0.400731 1.84082 0.0813984 0.588532C0.0626141 0.513395 0.0250457 0.44452 0 0.375644C0 0.300507 0 0.219109 0 0.143972Z" fill="#7F22FE"/>
<path d="M3.95703 8.20869C5.37211 6.79361 6.8185 5.34722 8.27741 3.88831C8.94738 4.58959 9.62988 5.30339 10.2873 5.99841C8.89103 7.3947 7.43838 8.84109 5.97947 10.3063C5.31576 9.61751 4.63327 8.90997 3.95703 8.20869Z" fill="#7F22FE"/>
</g>
</g>
<defs>
<clipPath id="clip0_3464_11">
<rect width="25" height="24" fill="white"/>
</clipPath>
</defs>
</svg>
