<svg width="53" height="24" viewBox="0 0 53 24" fill="none" xmlns="http://www.w3.org/2000/svg">
<g clip-path="url(#clip0_2595_18)">
<path d="M3.9265 24C1.76408 24 0 22.2502 0 20.0735C0 17.8969 1.76408 16.147 3.9265 16.147C6.10314 16.147 7.85299 17.9111 7.85299 20.0735C7.85299 22.2502 6.10314 24 3.9265 24Z" fill="white"/>
<path d="M9.30371 23.9715V0H17.1567V16.1186C17.1709 20.4576 13.6428 23.9715 9.30371 23.9715Z" fill="white"/>
<path d="M49.778 2.29046C49.65 2.16242 49.5077 2.03438 49.3654 1.90634C48.8675 1.46532 48.3127 1.09544 47.7009 0.79668L44.2439 3.32899L40.3743 6.11737C40.0471 4.63782 39.2931 3.32899 38.2688 2.30468C38.1408 2.17664 37.9985 2.04861 37.8562 1.92057C37.3583 1.47955 36.8035 1.10966 36.1917 0.810907L32.7205 3.31476L28.6944 6.23118C27.9546 2.67457 24.7964 0 21.0264 0V16.1328C21.0264 20.4576 24.5403 23.9715 28.8651 23.9715V8.40782L32.7205 5.61944V16.1328C32.7205 20.4576 36.2344 23.9715 40.5593 23.9715V8.27979L44.2439 5.61944V16.1328C44.2439 20.4576 47.7578 23.9715 52.0827 23.9715V7.83877C52.0827 5.67635 51.2006 3.7131 49.778 2.29046Z" fill="white"/>
</g>
<defs>
<clipPath id="clip0_2595_18">
<rect width="52.083" height="24" fill="white"/>
</clipPath>
</defs>
</svg>
