<svg width="146" height="32" viewBox="0 0 146 32" fill="none" xmlns="http://www.w3.org/2000/svg">
<g clip-path="url(#clip0_3364_56)">
<path d="M5.2501 32C2.35349 32 0 29.6518 0 26.7616C0 23.8715 2.35349 21.5233 5.2501 21.5233C8.1467 21.5233 10.5002 23.8715 10.5002 26.7616C10.5002 29.6518 8.1467 32 5.2501 32Z" fill="white"/>
<path d="M12.4355 31.9583V0H22.9357V21.4815C22.9357 27.2757 18.2288 31.9583 12.4355 31.9583Z" fill="white"/>
<path d="M66.5107 3.05688C66.3296 2.87625 66.1486 2.70951 65.9675 2.54277C65.2991 1.95918 64.561 1.47286 63.7533 1.06991L59.116 4.41858L53.9494 8.14242C53.4899 6.18324 52.5011 4.43248 51.1224 3.05688C50.9414 2.87625 50.7604 2.70951 50.5654 2.54277C49.897 1.95918 49.145 1.47286 48.3512 1.06991L43.7138 4.41858L38.3384 8.29527C37.3496 3.5571 33.1301 0 28.0889 0V21.5093C28.0889 27.2757 32.7819 31.9583 38.5612 31.9583V11.2132L43.7138 7.48936V21.5093C43.7138 27.2757 48.4069 31.9583 54.1862 31.9583V11.0326L59.102 7.50326V21.5093C59.102 27.2757 63.7951 31.9583 69.5744 31.9583V10.449C69.5744 7.55884 68.4046 4.94659 66.5107 3.05688Z" fill="white"/>
<path d="M84.9757 0.611362C85.6303 0.94484 86.1455 1.43116 86.5076 2.05643C86.8697 2.68171 87.0507 3.41814 87.0507 4.25183C87.0507 5.08553 86.8697 5.80806 86.5076 6.41944C86.1455 7.03082 85.6442 7.50324 84.9757 7.83672C84.3212 8.1702 83.5553 8.32304 82.6779 8.32304H79.9902V0.111145H82.6779C83.5553 0.111145 84.3212 0.277884 84.9757 0.611362ZM84.8922 6.43333C85.4074 5.91922 85.6581 5.18279 85.6581 4.23794C85.6581 3.27919 85.4074 2.54276 84.8922 2.00085C84.3769 1.45895 83.6388 1.19495 82.6779 1.19495H81.341V7.21145H82.6779C83.6388 7.21145 84.3769 6.96134 84.8922 6.43333Z" fill="white"/>
<path d="M89.7248 1.19499V3.59881H92.5657V4.69651H89.7248V7.21149H92.9139V8.30919H88.374V0.09729H92.9139V1.19499H89.7248Z" fill="white"/>
<path d="M95.7964 8.10072C95.3508 7.90619 95.0026 7.62829 94.752 7.28092C94.5013 6.93355 94.376 6.5167 94.376 6.04427H95.8243C95.8521 6.40554 95.9914 6.68344 96.2421 6.91965C96.4927 7.14197 96.8409 7.26702 97.2865 7.26702C97.7461 7.26702 98.1081 7.15587 98.3727 6.93355C98.6373 6.71123 98.7627 6.41943 98.7627 6.07206C98.7627 5.79416 98.6791 5.57184 98.5259 5.40511C98.3588 5.23837 98.1638 5.09942 97.9271 5.00215C97.6904 4.90489 97.3561 4.80762 96.9244 4.69646C96.3813 4.55751 95.9496 4.40467 95.6154 4.26572C95.2812 4.12677 94.9887 3.89056 94.752 3.58487C94.5152 3.27918 94.4038 2.86233 94.4038 2.36212C94.4038 1.88969 94.5152 1.47284 94.752 1.12547C94.9887 0.778097 95.3229 0.500198 95.7407 0.305669C96.1724 0.111141 96.6598 0.027771 97.2169 0.027771C98.0107 0.027771 98.6652 0.2223 99.1804 0.625253C99.6957 1.02821 99.9742 1.57011 100.03 2.26485H98.5398C98.512 1.95916 98.3727 1.70906 98.1081 1.50063C97.8435 1.29221 97.5093 1.18105 97.0776 1.18105C96.6877 1.18105 96.3813 1.27831 96.1306 1.47284C95.88 1.66737 95.7686 1.95916 95.7686 2.32043C95.7686 2.57054 95.8521 2.77897 96.0053 2.9457C96.1585 3.11244 96.3535 3.2375 96.5902 3.33476C96.8269 3.43203 97.1472 3.52929 97.565 3.64045C98.1081 3.79329 98.5538 3.94614 98.9019 4.08509C99.2501 4.23793 99.5425 4.46025 99.7793 4.77983C100.016 5.08552 100.141 5.50237 100.141 6.03038C100.141 6.44722 100.03 6.83628 99.8071 7.21144C99.5843 7.58661 99.2501 7.8784 98.8184 8.10072C98.3867 8.32304 97.8853 8.4342 97.3004 8.4342C96.7295 8.39251 96.2421 8.29525 95.7964 8.10072Z" fill="white"/>
<path d="M103.08 0.111145V8.32304H101.729V0.111145H103.08Z" fill="white"/>
<path d="M110.809 2.4733C110.6 2.07034 110.293 1.75076 109.917 1.54234C109.541 1.33391 109.096 1.22275 108.608 1.22275C108.065 1.22275 107.578 1.34781 107.146 1.58402C106.714 1.83413 106.38 2.16761 106.143 2.62614C105.907 3.07078 105.781 3.59878 105.781 4.18237C105.781 4.76596 105.907 5.29396 106.143 5.7525C106.38 6.21103 106.714 6.5584 107.146 6.79462C107.578 7.04472 108.051 7.15588 108.608 7.15588C109.346 7.15588 109.931 6.94746 110.391 6.54451C110.85 6.14155 111.129 5.58576 111.226 4.87712H108.135V3.80721H112.661V4.86322C112.577 5.50239 112.34 6.08598 111.978 6.62788C111.616 7.16978 111.129 7.58663 110.544 7.90621C109.959 8.22579 109.305 8.37864 108.58 8.37864C107.801 8.37864 107.104 8.198 106.464 7.83674C105.823 7.47547 105.322 6.97525 104.946 6.34998C104.57 5.71081 104.389 4.98828 104.389 4.18237C104.389 3.37647 104.57 2.65393 104.946 2.02866C105.322 1.38949 105.823 0.889275 106.478 0.541902C107.118 0.180634 107.828 0 108.594 0C109.472 0 110.252 0.208424 110.934 0.639166C111.616 1.06991 112.118 1.68129 112.424 2.4594H110.809V2.4733Z" fill="white"/>
<path d="M120.752 8.30919H119.401L115.349 2.18153V8.30919H113.998V0.09729H115.349L119.401 6.21105V0.09729H120.752V8.30919Z" fill="white"/>
<path d="M90.6998 11.908L88.2627 20.1199H86.7309L85.0041 13.9088L83.1658 20.1199L81.6479 20.1338L79.3223 11.9219H80.7566L82.4556 18.6053L84.3078 11.9219H85.8257L87.5386 18.5636L89.2515 11.9219H90.6998V11.908Z" fill="white"/>
<path d="M93.1643 13.0057V15.4095H96.0052V16.5072H93.1643V19.0222H96.3534V20.1199H91.8135V11.908H96.3534V13.0057H93.1643Z" fill="white"/>
<path d="M103.539 16.6044C103.846 16.9935 103.999 17.4242 103.999 17.9106C103.999 18.3274 103.888 18.7026 103.679 19.0361C103.456 19.3695 103.149 19.6335 102.732 19.8281C102.328 20.0226 101.84 20.1199 101.297 20.1199H98.0107V11.908H101.144C101.701 11.908 102.189 12.0052 102.592 12.1859C102.996 12.3804 103.303 12.6305 103.498 12.9501C103.706 13.2697 103.804 13.6309 103.804 14.02C103.804 14.4924 103.679 14.8815 103.428 15.2011C103.177 15.5206 102.843 15.743 102.411 15.8958C102.857 15.9792 103.233 16.2154 103.539 16.6044ZM99.3616 15.3678H101.033C101.478 15.3678 101.826 15.2705 102.063 15.0621C102.314 14.8676 102.439 14.5758 102.439 14.2006C102.439 13.8255 102.314 13.5476 102.063 13.3391C101.813 13.1307 101.464 13.0196 101.033 13.0196H99.3616V15.3678ZM102.258 18.6887C102.523 18.4664 102.648 18.1607 102.648 17.7716C102.648 17.3687 102.509 17.0491 102.23 16.8129C101.952 16.5767 101.59 16.4516 101.13 16.4516H99.3616V19.0083H101.186C101.645 19.0222 101.994 18.911 102.258 18.6887Z" fill="white"/>
<path d="M88.6522 23.7186V31.9305H87.3014V26.317L84.7947 31.9305H83.8617L81.341 26.317V31.9305H79.9902V23.7186H81.4525L84.3351 30.152L87.2039 23.7186H88.6522Z" fill="white"/>
<path d="M95.3794 30.2492H91.9397L91.3548 31.9305H89.9482L92.9005 23.7186H94.4603L97.4126 31.9305H95.9921L95.3794 30.2492ZM95.0034 29.1515L93.6665 25.3443L92.3157 29.1515H95.0034Z" fill="white"/>
<path d="M102.94 31.9305L101.046 28.6513H100.016V31.9305H98.665V23.7186H101.506C102.133 23.7186 102.676 23.8298 103.107 24.0521C103.539 24.2744 103.873 24.5662 104.096 24.9414C104.319 25.3165 104.416 25.7195 104.416 26.178C104.416 26.7199 104.263 27.2063 103.943 27.637C103.637 28.0677 103.149 28.3734 102.509 28.5263L104.542 31.9305H102.94ZM100.016 27.5675H101.506C102.007 27.5675 102.397 27.4425 102.648 27.1924C102.899 26.9422 103.038 26.6088 103.038 26.178C103.038 25.7473 102.912 25.4138 102.662 25.1776C102.411 24.9414 102.021 24.8163 101.52 24.8163H100.03V27.5675H100.016Z" fill="white"/>
<path d="M110.683 31.9305L107.494 28.2623V31.9305H106.144V23.7186H107.494V27.4564L110.683 23.7186H112.382L108.803 27.8315L112.438 31.9305H110.683Z" fill="white"/>
<path d="M114.987 24.8024V27.2062H117.827V28.3039H114.987V30.8189H118.176V31.9166H113.636V23.7047H118.176V24.8024H114.987Z" fill="white"/>
<path d="M125.153 23.7186V24.8163H122.966V31.9305H121.615V24.8163H119.415V23.7186H125.153Z" fill="white"/>
<path d="M127.868 23.7186V31.9305H126.518V23.7186H127.868Z" fill="white"/>
<path d="M136.404 31.9305H135.054L131.001 25.8029V31.9305H129.65V23.7186H131.001L135.054 29.8324V23.7186H136.404V31.9305Z" fill="white"/>
<path d="M144.12 26.0808C143.911 25.6778 143.605 25.3582 143.229 25.1498C142.853 24.9414 142.407 24.8302 141.92 24.8302C141.377 24.8302 140.889 24.9553 140.458 25.1915C140.026 25.4416 139.692 25.7751 139.455 26.2336C139.218 26.6783 139.093 27.2063 139.093 27.7899C139.093 28.3734 139.218 28.9014 139.455 29.36C139.692 29.8185 140.026 30.1659 140.458 30.4021C140.889 30.6522 141.363 30.7634 141.92 30.7634C142.658 30.7634 143.243 30.5549 143.702 30.152C144.162 29.749 144.44 29.1932 144.538 28.4846H141.446V27.4147H145.972V28.4707C145.889 29.1099 145.652 29.6935 145.29 30.2354C144.928 30.7773 144.44 31.1941 143.855 31.5137C143.271 31.8333 142.616 31.9861 141.892 31.9861C141.112 31.9861 140.416 31.8055 139.775 31.4442C139.135 31.083 138.633 30.5827 138.257 29.9575C137.881 29.3183 137.7 28.5958 137.7 27.7899C137.7 26.9839 137.881 26.2614 138.257 25.6361C138.633 24.997 139.135 24.4968 139.789 24.1494C140.43 23.7881 141.14 23.6075 141.906 23.6075C142.783 23.6075 143.563 23.8159 144.245 24.2467C144.928 24.6774 145.429 25.2888 145.735 26.0669H144.12V26.0808Z" fill="white"/>
</g>
<defs>
<clipPath id="clip0_3364_56">
<rect width="146" height="32" fill="white"/>
</clipPath>
</defs>
</svg>
