<svg width="146" height="32" viewBox="0 0 146 32" fill="none" xmlns="http://www.w3.org/2000/svg">
<g clip-path="url(#clip0_2984_244)">
<path d="M0 0V30.9878H31.455V22.6569H11.9903L12.146 0H0Z" fill="white"/>
<path d="M31.6111 0L31.5332 22.6569C31.5332 22.6569 33.2461 32.1557 44.2242 32H57.2266C57.2266 32 66.5697 31.0657 68.4383 23.5912V0H56.2923V19.0754C56.2923 19.0754 56.6816 24.292 49.9079 24.292C43.212 24.292 43.5235 19.1533 43.5235 19.1533L43.6013 0H31.6111Z" fill="white"/>
<path d="M145.674 0V31.0657L132.204 30.9878L118.812 13.6253V30.9878H95.2991L94.3648 28.6521L91.3283 20.399L91.0168 19.3869L90.4718 17.9075L87.3575 9.42093L80.0387 30.9878H66.8027L80.1945 0H95.1434L107.289 28.4964V0H121.226L133.839 16.8175V0H145.674Z" fill="white"/>
</g>
<defs>
<clipPath id="clip0_2984_244">
<rect width="145.674" height="32" fill="white"/>
</clipPath>
</defs>
</svg>
