<svg width="53" height="24" viewBox="0 0 53 24" fill="none" xmlns="http://www.w3.org/2000/svg">
<g clip-path="url(#clip0_2595_18)">
<path d="M3.9265 24C1.76408 24 0 22.2501 0 20.0735C0 17.8969 1.76408 16.147 3.9265 16.147C6.10314 16.147 7.85299 17.9111 7.85299 20.0735C7.85299 22.2501 6.10314 24 3.9265 24Z" fill="white"/>
<path d="M9.3042 23.9715V0H17.1572V16.1186C17.1714 20.4576 13.6433 23.9715 9.3042 23.9715Z" fill="white"/>
<path d="M49.7785 2.29046C49.6504 2.16242 49.5082 2.03438 49.3659 1.90634C48.868 1.46532 48.3132 1.09544 47.7014 0.79668L44.2444 3.32899L40.3748 6.11737C40.0476 4.63782 39.2936 3.32899 38.2693 2.30468C38.1413 2.17664 37.999 2.04861 37.8567 1.92057C37.3588 1.47955 36.804 1.10966 36.1922 0.810907L32.721 3.31476L28.6949 6.23118C27.9551 2.67457 24.7969 0 21.0269 0V16.1328C21.0269 20.4576 24.5408 23.9715 28.8656 23.9715V8.40782L32.721 5.61944V16.1328C32.721 20.4576 36.2349 23.9715 40.5598 23.9715V8.27979L44.2444 5.61944V16.1328C44.2444 20.4576 47.7583 23.9715 52.0832 23.9715V7.83877C52.0832 5.67635 51.2011 3.7131 49.7785 2.29046Z" fill="white"/>
</g>
<defs>
<clipPath id="clip0_2595_18">
<rect width="52.083" height="24" fill="white"/>
</clipPath>
</defs>
</svg>
