<svg width="94" height="16" viewBox="0 0 94 16" fill="none" xmlns="http://www.w3.org/2000/svg">
<path d="M0 0H6.74419C11.5814 0 15.2558 0.744186 15.2558 4.55814C15.2558 7.62791 12.6977 9.39535 7.86046 9.39535H5.5814V13.4419C5.5814 15.3488 6.88372 15.5349 6.88372 15.5349V15.907H0V15.5349C0 15.5349 1.30233 15.3023 1.30233 13.5349V2.37209C1.30233 0.558139 0 0.372093 0 0.372093V0ZM5.5814 2.83721V8.74419H6.13953C10.0465 8.74419 10.9767 6.88372 10.9767 4.65116C10.9767 2.46512 9.90698 0.790698 7.02326 0.790698C6.46512 0.744186 5.5814 1.16279 5.5814 2.83721Z" fill="white"/>
<path d="M21.8605 0.697684C21.3023 0.697684 20.3721 0.930241 20.3721 2.3721V5.48838H20.6047C22.4651 5.48838 22.6977 4.51164 22.6977 4.51164L23.0233 4.55815V7.72094L22.6977 7.76745C22.6977 7.76745 22.4186 6.83722 20.6047 6.79071H20.3721V10.5116C20.3721 12.093 21.5814 12.1861 21.907 12.1861H22.6047C25.0233 12.1861 26.5116 9.06978 26.5116 9.06978L26.7907 9.20931L26.1861 12.7907H15.907V12.4651C15.907 12.4651 16.9302 12.3256 16.9302 10.8837V2.00001C16.9302 0.60466 15.907 0.418613 15.907 0.418613V0.0930328H26.1861L26.7907 3.62792L26.5116 3.76745C26.5116 3.76745 24.9767 0.651171 22.6047 0.651171H21.8605V0.697684Z" fill="white"/>
<path d="M27.7209 0.0930328H33.1163C36.9768 0.0930328 39.907 0.697684 39.907 3.72094C39.907 6.18606 37.8605 7.5814 34 7.5814H32.1861V10.8372C32.1861 12.3721 33.2093 12.5116 33.2093 12.5116V12.8372H27.7209V12.5116C27.7209 12.5116 28.7442 12.3256 28.7442 10.9302V2.00001C28.7442 0.558148 27.7209 0.418613 27.7209 0.418613V0.0930328ZM32.1396 2.32559V7.02326H32.6047C35.7209 7.02326 36.4651 5.53489 36.4651 3.76745C36.4651 2.00001 35.6279 0.651171 33.3023 0.651171C32.8837 0.697683 32.1861 1.02327 32.1396 2.32559Z" fill="white"/>
<path d="M40.3721 0.0930328H45.7674C49.6279 0.0930328 52.5581 0.697684 52.5581 3.72094C52.5581 6.18606 50.5116 7.5814 46.6511 7.5814H44.8372V10.8372C44.8372 12.3721 45.8604 12.5116 45.8604 12.5116V12.8372H40.3721V12.5116C40.3721 12.5116 41.3953 12.3256 41.3953 10.9302V2.00001C41.3953 0.558148 40.3721 0.418613 40.3721 0.418613V0.0930328ZM44.7907 2.32559V7.02326H45.2558C48.3721 7.02326 49.1163 5.53489 49.1163 3.76745C49.1163 2.00001 48.279 0.651171 45.9535 0.651171C45.5349 0.697683 44.8372 1.02327 44.7907 2.32559Z" fill="white"/>
<path d="M58.9302 0.697684C58.3721 0.697684 57.4419 0.930241 57.4419 2.3721V5.48838H57.6744C59.5349 5.48838 59.7674 4.51164 59.7674 4.51164L60.093 4.55815V7.72094L59.7674 7.76745C59.7674 7.76745 59.4884 6.83722 57.6744 6.79071H57.4419V10.5116C57.4419 12.093 58.6512 12.1861 58.9767 12.1861H59.6744C62.093 12.1861 63.5814 9.06978 63.5814 9.06978L63.8605 9.20931L63.2558 12.7907H52.9767V12.4651C52.9767 12.4651 54 12.3256 54 10.8837V2.00001C54 0.60466 52.9767 0.418613 52.9767 0.418613V0.0930328H63.2558L63.8605 3.62792L63.5814 3.76745C63.5814 3.76745 62.0465 0.651171 59.6744 0.651171H58.9302V0.697684Z" fill="white"/>
<path d="M64.7906 0.0930328H70.186C74.0465 0.0930328 76.9767 0.697684 76.9767 3.72094C76.9767 5.5814 75.8604 6.79071 73.6744 7.30234L75.5348 10.7907C76.2325 12.3256 77.3488 12.4651 77.3488 12.4651L77.4883 12.7907H72L71.8604 12.4651C71.8604 12.4651 72.6046 12.3256 72.186 10.8837C71.4418 8.27908 71.2558 7.67443 71.2093 7.53489C71.1627 7.53489 69.2558 7.53489 69.2558 7.53489V10.7907C69.2558 12.3256 70.279 12.4651 70.279 12.4651V12.7907H64.7906V12.4651C64.7906 12.4651 65.8139 12.2791 65.8139 10.8837V2.00001C65.8139 0.558148 64.7906 0.418613 64.7906 0.418613V0.0930328ZM69.2558 2.32559V7.02326H69.7209C72.8372 7.02326 73.5813 5.53489 73.5813 3.76745C73.5813 2.00001 72.7441 0.651171 70.372 0.651171C69.8604 0.697683 69.2558 0.976753 69.2558 2.32559Z" fill="white"/>
<path d="M78.3721 0.744188C78.7442 0.0930252 79.5348 -0.0930206 80.186 0.232561C80.8372 0.604654 81.0232 1.39535 80.6976 2L79.4418 4.18605C78.5116 3.76744 79.1628 3.06977 78.7907 2.46512C78.2325 2.09303 78.0465 1.34884 78.3721 0.744188Z" fill="white"/>
<path d="M93.2558 2.18604C92.3721 3.53488 91.3023 4.51162 89.3954 4.18604C90.2791 3.44185 89.4884 0.744179 87.3023 0.744179C85.6744 0.744179 84.6512 1.67441 84.6512 3.16278C84.6512 6.69767 94 5.39534 94 11.3953C94 15.1163 90.8372 16 86.5116 16C84.8372 16 81.3954 15.5814 79.907 13.6744C81.907 12.7442 81.814 9.25581 84.5116 9.58139C83.2558 9.58139 82.5116 14.8837 86.6977 14.8837C88.093 14.8837 89.7209 14.2791 89.7209 12.3256C89.7209 10.1395 87.814 9.2093 85.8605 8.32557L85.4884 8.18604C83.4884 7.30232 81.6279 6.37209 81.6279 4.18604C81.6279 1.06976 84.8372 0.139528 87.3953 0.139528C90.186 0.0465048 92.0465 0.883715 93.2558 2.18604Z" fill="white"/>
</svg>
