<svg width="167" height="32" viewBox="0 0 167 32" fill="none" xmlns="http://www.w3.org/2000/svg">
<g clip-path="url(#clip0_2410_118)">
<path d="M19.8429 11.3329C19.7811 12.2395 19.6574 13.2492 19.472 14.3619C19.2865 15.4746 19.0393 16.6079 18.7302 17.7618C18.4211 18.9156 18.0708 20.0695 17.6587 21.1616C17.2466 22.2537 16.8139 23.2634 16.34 24.1494C15.8661 25.056 15.3509 25.8184 14.774 26.3748C14.1558 26.9929 13.5377 27.3432 12.8783 27.405C12.7547 27.4256 12.6516 27.4256 12.528 27.4256C11.7244 27.4256 11.0444 27.1578 10.4675 26.622C9.86993 26.0657 9.39601 25.3033 9.04572 24.3554C8.69543 23.4488 8.46877 22.3979 8.34514 21.2234C8.22151 20.0695 8.15969 18.895 8.2009 17.6793C8.2009 16.8963 8.22151 15.9897 8.28332 15.0006C8.32453 14.0116 8.38635 13.0019 8.42756 11.9511C8.46877 10.9002 8.53059 9.86993 8.5718 8.86027C8.61301 7.85061 8.65422 6.92337 8.69543 6.07856C8.71603 5.21314 8.73664 4.51256 8.75724 3.915C8.77785 3.15261 8.73664 2.90534 8.71603 2.82292C8.65422 2.61687 8.55119 2.45203 8.38635 2.28719C8.22151 2.14295 8.01545 2.06053 7.70638 2.06053C7.37669 2.03992 6.96458 2.12234 6.49066 2.30779C5.99614 2.51384 5.39858 2.86413 4.73921 3.35866C4.12106 3.83258 3.62653 4.36832 3.31745 4.90406C2.98777 5.4604 2.7405 5.99614 2.61687 6.47006C2.47263 6.96458 2.39021 7.39729 2.39021 7.74758C2.36961 8.13908 2.36961 8.42756 2.36961 8.61301C2.36961 9.66388 2.55505 10.4057 2.88474 10.859C3.23503 11.3123 3.62653 11.6214 4.03864 11.7862C4.47135 11.9511 4.86285 12.0335 5.23374 12.0335C5.58403 12.0335 6.2434 12.0335 6.36703 12.5486V12.5692C6.40824 12.7547 6.40824 13.208 5.66645 13.4346C5.35737 13.5171 4.94527 13.5583 4.49195 13.5377C4.03863 13.5171 3.54411 13.3934 3.02898 13.1874C2.49324 12.9813 1.99871 12.631 1.5454 12.1365C1.09208 11.6626 0.721185 11.0444 0.432711 10.282C0.144237 9.56085 0 8.61301 0 7.47972C0 6.49066 0.226658 5.54282 0.679974 4.65679C1.11269 3.79137 1.68963 2.98777 2.41082 2.28719C3.1114 1.58661 3.93561 1.03026 4.86285 0.618158C5.76948 0.206053 6.73793 0 7.70638 0C9.70509 0 11.0856 0.721185 11.7656 2.12234C12.425 3.44108 12.631 5.39858 12.425 8.09787C12.3426 8.94269 12.2807 9.97296 12.2395 11.1681C12.1983 12.3426 12.1571 13.5995 12.1571 14.8976C12.1365 16.1958 12.1365 17.4939 12.1571 18.7714C12.1777 20.0489 12.1983 21.2028 12.2601 22.2331C12.3014 23.2428 12.3838 24.0876 12.4662 24.7263C12.5074 24.9736 12.528 25.1384 12.5692 25.2621C12.6929 25.159 12.8783 24.9736 13.1256 24.6439C13.6407 23.9845 14.197 23.0779 14.7534 21.924C15.3303 20.7495 15.8455 19.3896 16.34 17.8648C16.8139 16.3606 17.123 14.774 17.2466 13.1462C17.3703 11.5184 17.4115 10.0142 17.3496 8.69543C17.2878 7.37669 17.2054 6.2434 17.0818 5.29556C16.9788 4.36832 16.8551 3.64713 16.7727 3.132C16.6285 2.36961 16.6079 2.22537 16.6079 2.14295V2.10174V2.06053C16.6285 1.89569 16.7727 1.48358 17.4321 1.38055C17.803 1.31874 18.1945 1.42176 18.5241 1.68963C18.689 1.81326 18.8538 2.03992 19.0805 2.76111C19.2453 3.27624 19.4102 3.95621 19.5544 4.78043C19.6986 5.60464 19.8017 6.57308 19.8841 7.66516C19.9253 8.77785 19.9253 10.0142 19.8429 11.3329Z" fill="white"/>
<path d="M24.3556 11.4977C24.3556 11.8686 24.2938 12.1365 24.1908 12.3631C24.0877 12.5692 23.9435 12.7134 23.7993 12.8371C23.655 12.9401 23.5108 13.0225 23.3459 13.0637C23.3047 13.0843 23.2635 13.0843 23.2429 13.0843C23.2017 13.1049 23.1605 13.1255 23.1193 13.1461C23.0781 13.1667 23.0163 13.208 22.9751 13.2286C22.8514 13.3316 22.7072 13.3728 22.5217 13.3728C22.4599 13.3728 22.3775 13.3728 22.3157 13.3522C22.1096 13.311 21.9036 13.2286 21.6975 13.0843C21.5121 12.9607 21.3266 12.7959 21.1824 12.6104C20.9969 12.3837 20.8939 12.1159 20.8527 11.8274C20.8115 11.5389 20.8527 11.2711 20.9557 11.065C21.0382 10.9208 21.1 10.7971 21.1618 10.7147L21.1824 10.6941C21.2442 10.6117 21.3266 10.5293 21.409 10.4675C21.4297 10.4262 21.4503 10.3644 21.4709 10.3232C21.5533 10.1378 21.7181 9.89051 22.0684 9.74627L22.1096 9.72567H22.1508C22.3157 9.68446 22.5217 9.68446 22.769 9.70506C23.0163 9.74627 23.2635 9.82869 23.4902 9.95233C23.7168 10.0966 23.9435 10.282 24.1083 10.5293C24.2526 10.8177 24.3556 11.1474 24.3556 11.4977Z" fill="white"/>
<path d="M60.0642 16.9169C59.7345 16.7727 59.4666 16.8345 59.3224 16.9169C59.0957 17.02 58.9309 17.226 58.8279 17.5351L58.8073 17.5763V17.6175C58.7248 18.112 58.6218 18.6684 58.5188 19.2865C58.3952 19.9047 58.1891 20.8319 57.9212 22.027C57.4885 23.8609 57.1176 25.2415 56.7879 26.0863C56.5613 26.6632 56.314 27.0135 56.108 27.0753C56.0874 27.0341 56.0668 26.9929 56.0255 26.9105C55.9019 26.6426 55.7783 26.2717 55.6753 25.839C55.5722 25.3857 55.4692 24.8912 55.3868 24.3554C55.3044 23.8197 55.2219 23.284 55.1807 22.7688C55.1395 22.2537 55.0983 21.8004 55.0777 21.4089C55.0365 20.8938 55.0365 20.7083 55.0365 20.6465C55.0365 20.4198 55.0159 20.1726 54.9747 19.8841C54.9335 19.575 54.8304 19.2659 54.7068 18.9981C54.5832 18.7714 54.4389 18.5654 54.2741 18.3799C54.3977 18.2357 54.4802 18.0296 54.542 17.6999C54.6244 17.2672 54.6038 16.7521 54.4802 16.1545C54.3565 15.5776 54.1093 14.9594 53.7384 14.3413C53.3675 13.7025 52.7699 13.1256 52.0075 12.6516C51.1833 12.1365 50.3797 12.0129 49.6173 12.2807C48.9373 12.528 48.3192 12.9401 47.7834 13.5171C47.2683 14.0734 46.815 14.6916 46.4647 15.3715C46.1144 16.0515 45.8465 16.5872 45.6611 17.0612C45.4756 17.5351 45.3108 18.0914 45.1254 18.7302C44.9605 19.369 44.7957 19.9871 44.672 20.6259C44.5278 21.2646 44.4248 21.8828 44.3217 22.4804C44.2393 23.0779 44.1775 23.6136 44.1775 24.0258C44.1775 24.1082 44.1775 24.1906 44.1775 24.2524C44.0127 24.6851 43.8272 25.1178 43.6418 25.5299C43.3327 26.2305 43.003 26.8693 42.6733 27.4256C42.3849 27.9202 42.0964 28.2704 41.8285 28.4559C41.7873 28.4765 41.7667 28.4971 41.7667 28.4971C41.7461 28.4765 41.6637 28.4353 41.5606 28.2704C41.2928 27.8377 41.0661 27.1578 40.8601 26.2717C40.654 25.3445 40.4686 24.2318 40.3449 22.9337C40.2213 21.6974 40.1389 20.3786 40.0977 19.0393C40.3655 18.6066 40.6952 18.0296 41.0661 17.3703C41.4782 16.6285 41.8903 15.763 42.323 14.7946C42.7351 13.8261 43.1472 12.7547 43.5387 11.6008C43.9302 10.4263 44.2187 9.18995 44.4248 7.91243C44.7132 6.18158 44.7751 4.88345 44.6102 3.95621C44.4454 2.98776 44.1775 2.30779 43.8272 1.87508C43.4357 1.40116 43.003 1.15389 42.5085 1.11268C42.117 1.09208 41.8285 1.09208 41.6431 1.11268H41.6019C41.4782 1.13329 41.3134 1.1951 41.1073 1.27753C40.8601 1.38055 40.5922 1.566 40.2625 1.87508C39.974 2.16355 39.6444 2.57566 39.3147 3.132C38.985 3.66774 38.6553 4.40953 38.3256 5.31616C37.9959 6.22279 37.6868 7.35608 37.3984 8.71603C37.1099 10.0554 36.8214 11.7038 36.5742 13.5995C36.3063 15.7218 36.2239 17.6793 36.3269 19.3896C36.2033 19.8429 36.059 20.3374 35.8942 20.8525C35.6675 21.5943 35.3997 22.3979 35.1112 23.2221C34.8227 24.0464 34.5136 24.8088 34.2046 25.5299C33.8955 26.2305 33.5658 26.8693 33.2361 27.4256C32.9476 27.9202 32.6592 28.2704 32.3913 28.4559C32.3501 28.4765 32.3295 28.4971 32.3295 28.4971C32.3089 28.4765 32.2264 28.4353 32.1234 28.2704C31.8556 27.8377 31.6289 27.1578 31.4228 26.2717C31.2168 25.3445 31.0313 24.2318 30.9077 22.9337C30.7841 21.6974 30.7017 20.3786 30.6604 19.0393C30.9283 18.6066 31.258 18.0296 31.6289 17.3703C32.041 16.6285 32.4531 15.763 32.8858 14.7946C33.2979 13.8261 33.71 12.7547 34.1015 11.6008C34.493 10.4263 34.7815 9.18995 34.9876 7.91243C35.276 6.18158 35.3378 4.88345 35.173 3.95621C35.0082 2.98776 34.7403 2.30779 34.39 1.87508C33.9985 1.40116 33.5658 1.15389 33.0713 1.11268C32.6798 1.09208 32.3913 1.09208 32.2058 1.11268H32.1646C32.041 1.13329 31.8762 1.1951 31.6701 1.27753C31.4228 1.38055 31.155 1.566 30.8253 1.87508C30.5368 2.16355 30.2071 2.57566 29.8774 3.132C29.5478 3.66774 29.2181 4.40953 28.8884 5.31616C28.5587 6.22279 28.2496 7.35608 27.9612 8.71603C27.6727 10.0554 27.3842 11.7038 27.1369 13.5995C26.9309 15.3097 26.8279 16.9169 26.8485 18.3593C26.7248 18.7714 26.6012 19.2041 26.4776 19.6574C26.2509 20.3992 26.0037 21.1616 25.7358 21.9034C25.4885 22.6452 25.2 23.3252 24.9322 23.9433C24.6643 24.5409 24.3964 24.9942 24.1492 25.3445C23.9637 25.5918 23.8607 25.633 23.8607 25.633C23.7371 25.6124 23.6547 25.4063 23.6134 25.2827C23.4898 24.9324 23.428 24.4997 23.3868 23.9639C23.3662 23.4076 23.3662 22.7894 23.4074 22.1301C23.4486 21.4707 23.5104 20.8113 23.5722 20.1932C23.6547 19.5132 23.7165 18.9775 23.7783 18.5035L23.8401 18.009C23.8813 17.7617 23.9019 17.5763 23.9019 17.4527V17.4321C23.9225 17.1024 23.9431 16.8551 23.9225 16.6491C23.9019 16.4018 23.8607 16.2164 23.7577 16.0721C23.6547 15.9073 23.5104 15.763 23.2838 15.66L22.7892 15.4127C22.6656 15.3509 22.5214 15.2891 22.3977 15.2685H22.3771C22.0474 15.2067 21.8208 15.1861 21.6353 15.2273L21.5941 15.2479C21.3881 15.3097 21.2232 15.4746 21.079 15.763C20.976 15.9485 20.8935 16.237 20.7905 16.6491C20.7081 17.02 20.6051 17.5145 20.5226 18.1532C20.4402 18.7508 20.3372 19.5132 20.2342 20.4816C20.1105 21.4295 20.1311 22.4185 20.3166 23.4076C20.502 24.3966 20.7905 25.2621 21.1614 26.0039C21.5529 26.7663 22.0268 27.3432 22.5832 27.6935C22.8923 27.8995 23.2219 28.0026 23.5722 28.0026C23.9019 28.0026 24.2522 27.8995 24.5819 27.6729C24.9528 27.4462 25.3237 27.0341 25.674 26.416C26.0037 25.8596 26.3127 25.2003 26.6218 24.4997C26.8691 23.9227 27.0957 23.3252 27.3224 22.6864C27.6109 24.1288 27.9818 25.3857 28.4145 26.416C29.0326 27.8583 29.6714 28.8886 30.372 29.5892C31.1344 30.3516 31.7525 30.7225 32.2677 30.7225C32.7622 30.7225 33.2979 30.4134 33.8955 29.754C34.4106 29.1771 34.9463 28.3323 35.4821 27.2402C35.9766 26.2305 36.4711 24.9942 36.9657 23.5518C37.2129 24.6439 37.522 25.6124 37.8723 26.4366C38.4905 27.8789 39.1292 28.9092 39.8298 29.6098C40.5922 30.3722 41.2104 30.7431 41.7255 30.7431C42.22 30.7431 42.7557 30.434 43.3533 29.7746C43.8684 29.1977 44.4042 28.3529 44.9399 27.2608C45.0017 27.1372 45.0429 27.0341 45.1047 26.9105C45.455 27.2814 45.929 27.5493 46.5265 27.6729C46.8356 27.7553 47.1859 27.6729 47.5362 27.4256C47.804 27.2402 48.0925 26.9929 48.4016 26.6632C48.7107 26.3541 49.0198 25.9833 49.3288 25.6124C49.6379 25.2209 49.947 24.8088 50.2561 24.376C50.6888 23.7785 51.1421 23.0985 51.616 22.3567C51.6778 23.2634 51.7809 24.1082 51.9457 24.8706C52.0487 25.3857 52.193 25.9214 52.3578 26.416C52.5433 26.9311 52.7699 27.405 53.0378 27.8171C53.3263 28.2292 53.6559 28.5795 54.0474 28.8474C54.4595 29.1359 54.9541 29.2801 55.5104 29.2801C56.3758 29.2801 57.097 28.9092 57.6534 28.1674C58.1479 27.508 58.5806 26.6426 58.9103 25.6124C59.24 24.6027 59.549 23.4076 59.8169 22.0889C60.0642 20.8525 60.3321 19.4926 60.6205 17.9678C60.7442 17.4527 60.5175 17.0612 60.0642 16.9169ZM40.2625 13.1874C40.3655 11.8686 40.551 10.6735 40.757 9.64327C41.1485 8.01545 41.4576 6.75853 41.7049 5.79008C41.9521 4.84224 42.1582 4.14166 42.323 3.70895C42.3642 3.60592 42.3848 3.54411 42.4261 3.46168C42.4879 3.60592 42.5703 3.8944 42.6527 4.43013C42.7557 5.11011 42.7351 6.03734 42.5909 7.19124C42.4467 8.36574 42.117 9.80811 41.5812 11.4565C41.231 12.5692 40.757 13.7849 40.1595 15.1037C40.1801 14.4649 40.2213 13.8055 40.2625 13.1874ZM30.8047 13.1874C30.9077 11.8686 31.0932 10.6735 31.2992 9.64327C31.6701 8.03606 31.9998 6.73792 32.2471 5.81069C32.4943 4.86284 32.7004 4.16226 32.8652 3.72955C32.9064 3.62653 32.927 3.56471 32.9476 3.48229C33.0094 3.62653 33.0919 3.915 33.1743 4.45074C33.2773 5.13071 33.2567 6.05795 33.1125 7.21185C32.9682 8.38635 32.6179 9.82872 32.1028 11.4771C31.7525 12.5898 31.2786 13.8055 30.6811 15.1243C30.7223 14.4649 30.7635 13.8055 30.8047 13.1874ZM51.5954 18.4623C51.2657 18.7714 50.9566 19.2247 50.6476 19.8223C50.5033 20.0901 50.2355 20.5229 49.8646 21.1204C49.4937 21.718 49.1022 22.3155 48.6901 22.8925C48.381 23.3458 48.0719 23.7579 47.804 24.1288C47.8246 23.8815 47.8659 23.6136 47.9071 23.3046C47.9895 22.707 48.1337 22.0064 48.2986 21.2646C48.4634 20.5023 48.6695 19.7605 48.9167 19.0393C49.1434 18.3181 49.4319 17.6381 49.7409 16.9994C50.05 16.4018 50.3797 15.8867 50.7506 15.4952C51.1215 15.1243 51.3069 15.1037 51.3275 15.1037C51.41 15.1037 51.5542 15.1243 51.719 15.2685C51.8839 15.4334 52.0487 15.66 52.1724 15.9485C52.3372 16.2782 52.4814 16.6285 52.5845 16.9581C52.7081 17.3084 52.8317 17.6175 52.9554 17.8854C52.9554 17.906 52.976 17.906 52.976 17.9266C52.4196 17.9678 51.9457 18.1532 51.5954 18.4623Z" fill="white"/>
<path d="M95.4436 20.1932L95.4024 20.152L95.3612 20.1314C95.2376 20.049 95.0934 20.0078 94.9285 19.9871C94.6606 19.9665 94.4134 20.0902 94.2898 20.3168C94.0219 20.7495 93.651 21.2029 93.1977 21.6974C92.8268 22.1095 92.3116 22.5216 91.6935 22.9543C91.4256 22.5628 91.1577 22.1713 90.9311 21.7798C90.6632 21.3265 90.519 20.935 90.4778 20.5641C90.4366 20.049 90.4778 19.7605 90.4984 19.5956C90.5602 19.3278 90.622 19.1835 90.6426 19.1011C90.725 18.9363 90.7662 18.8951 90.7662 18.8745C90.9517 18.6066 90.9105 18.2563 90.6426 18.0502C89.9626 17.4939 89.4269 17.5763 89.0766 17.7206C88.6439 17.906 88.3142 18.2769 88.067 18.792C87.8609 19.266 87.7373 19.8223 87.7167 20.4405C87.7167 20.6671 87.7167 20.8938 87.7373 21.0998C87.6136 21.2647 87.49 21.4501 87.3252 21.615C87.0779 21.8828 86.7894 22.1301 86.4597 22.3361C86.2743 22.4392 86.0888 22.5216 85.8828 22.5628C85.9034 22.3361 85.924 22.1301 85.9446 21.9034C85.9858 21.5119 86.0064 21.1204 86.0064 20.7289C86.0064 19.9665 85.9034 19.2454 85.6973 18.6272C85.4913 18.009 85.244 17.4733 84.935 17.0406C84.6259 16.5873 84.255 16.2164 83.8429 15.9485C83.4308 15.6806 83.0187 15.5158 82.6272 15.4746H82.6066C82.2975 15.454 81.9678 15.4746 81.6587 15.4952C81.3084 15.5364 80.9993 15.6394 80.6903 15.7837C80.3812 15.9485 80.1133 16.1752 79.9073 16.4842C79.6806 16.7933 79.557 17.1642 79.5158 17.6175C79.4952 17.803 79.4952 18.0296 79.5364 18.3181C79.557 18.5448 79.6188 18.792 79.6806 19.0393C79.5158 19.3278 79.3715 19.6987 79.2273 20.1314C79.1449 20.2138 79.1037 20.2962 79.0831 20.3786V20.3993C79.0006 20.6465 78.8976 20.9968 78.7328 21.4501C78.5885 21.9034 78.4237 22.3774 78.2382 22.8925C78.0528 23.4076 77.8467 23.9434 77.6407 24.4791C77.4346 25.0148 77.2286 25.4888 77.0225 25.9215C76.8371 26.3336 76.6516 26.6633 76.4868 26.9105C76.4456 26.9723 76.4044 27.0342 76.3838 27.0548C76.3426 27.0135 76.2807 26.9311 76.2189 26.7251C76.0953 26.313 76.0129 25.736 75.9923 25.0354C75.951 24.2936 75.9511 23.4488 75.9717 22.5216C75.9923 21.615 75.9923 20.6671 75.9923 19.6987C76.1571 19.4102 76.3219 19.0599 76.528 18.6478C76.7547 18.1945 76.9813 17.6587 77.208 17.1024C77.4346 16.5461 77.6613 15.9279 77.8673 15.3097C78.0734 14.671 78.2382 14.0322 78.3413 13.3729C78.5061 12.4662 78.5267 11.745 78.4031 11.2093C78.2794 10.653 78.1146 10.2202 77.8467 9.93177C77.5789 9.62269 77.2904 9.43724 76.9813 9.35482C76.6516 9.2724 76.528 9.2724 76.4456 9.2724C75.8068 9.2724 75.3741 9.89056 75.0856 10.3645C74.7353 10.962 74.4057 11.745 74.0966 12.6929C73.8081 13.6201 73.5608 14.6916 73.3754 15.8661C73.2312 16.7727 73.1281 17.7 73.1075 18.6272C72.8809 18.5242 72.613 18.483 72.3245 18.4624C71.9536 18.4417 71.5827 18.5242 71.2118 18.7302C70.8822 18.9157 70.5525 19.2041 70.264 19.5956C69.9755 19.9665 69.7283 20.4611 69.5428 21.038C69.3574 21.615 69.1925 22.2949 69.0895 23.1191C69.0071 23.8609 69.0277 24.5203 69.1513 25.0354C69.2749 25.5712 69.481 26.0245 69.7695 26.3542C70.0579 26.7045 70.367 26.9517 70.7173 27.096C71.0676 27.2402 71.3561 27.302 71.6446 27.302C72.1597 27.302 72.6542 27.0754 73.1693 26.6427C73.396 26.4366 73.6227 26.1687 73.8287 25.8184C73.9111 26.1893 73.9936 26.4984 74.0966 26.7663C74.3026 27.405 74.5293 27.8996 74.7765 28.2293C75.0444 28.6208 75.3329 28.868 75.6626 28.971C75.9304 29.0741 76.1983 29.1359 76.4662 29.1359C76.8783 29.1359 77.2492 28.868 77.6407 28.3323C77.9498 27.8996 78.2588 27.3226 78.5885 26.5396C78.8152 26.0039 79.0624 25.3857 79.3303 24.7058C79.4539 25.056 79.6188 25.3651 79.8042 25.6536C80.1133 26.1275 80.5048 26.4984 80.9581 26.7869C81.4321 27.096 81.9884 27.2402 82.6066 27.2402C83.4514 27.2402 84.1313 26.9105 84.6671 26.2512C85.0792 25.7154 85.4089 25.0354 85.6149 24.1906H85.6973H85.7386C86.2331 24.1494 86.7276 23.9846 87.1603 23.6755C87.5518 23.4076 87.9227 23.0779 88.2524 22.7276C88.273 22.707 88.273 22.6864 88.2936 22.6864C88.4585 22.9337 88.6233 23.2016 88.8294 23.4488C89.0354 23.6961 89.2208 23.9434 89.4269 24.1906C89.056 24.4791 88.7263 24.7882 88.4997 25.1179C88.17 25.5918 87.9433 26.1687 87.8403 26.8487C87.7785 27.199 87.7785 27.5699 87.8609 27.9614C87.9227 28.3529 88.067 28.7238 88.273 29.0741C88.4791 29.4244 88.7881 29.7128 89.1384 29.9395C89.5093 30.1662 89.9626 30.2898 90.4984 30.2898C90.9929 30.2898 91.4256 30.1662 91.8377 29.9395C92.2292 29.7128 92.5383 29.4244 92.7856 29.0535C93.0328 28.7032 93.2183 28.3117 93.3213 27.8584C93.4243 27.4256 93.4861 26.9723 93.4655 26.519V26.4984C93.4243 26.0451 93.2801 25.5712 93.0328 25.0766C92.868 24.747 92.6825 24.4173 92.4765 24.067C92.6825 23.9228 92.8886 23.7785 93.0946 23.6137C93.4037 23.3664 93.7746 23.0367 94.1867 22.6246C94.5782 22.2125 95.0109 21.6974 95.4642 21.0998C95.7733 20.935 95.7527 20.5023 95.4436 20.1932ZM73.2105 23.2222C73.1075 23.5519 72.9839 23.9228 72.819 24.3143C72.6542 24.7058 72.4688 25.056 72.2627 25.3857C72.1391 25.5712 72.0154 25.6948 71.8712 25.7772C71.8094 25.5094 71.7888 25.1591 71.7888 24.7058C71.7888 24.2318 71.8506 23.7167 71.933 23.1398C72.0154 22.5628 72.1391 22.0477 72.2627 21.5531C72.3863 21.0998 72.5306 20.7083 72.6748 20.4199C72.716 20.358 72.7366 20.3168 72.7572 20.2756C72.7984 20.2962 72.8603 20.358 72.9015 20.4405C73.0251 20.6259 73.1281 20.8732 73.2105 21.1204C73.2312 21.6562 73.2724 22.1919 73.3548 22.6864C73.3342 22.8101 73.293 22.9543 73.2105 23.2222ZM75.6008 18.4211C75.642 17.4527 75.7244 16.5049 75.848 15.557C75.9923 14.6092 76.1159 13.7644 76.2807 13.0226C76.425 12.2808 76.5898 11.6832 76.7134 11.2299C76.8577 10.7766 76.9607 10.5499 77.0019 10.5499C77.0431 10.5499 77.1256 10.7148 77.208 11.0238C77.2904 11.3329 77.311 11.8068 77.2698 12.4662C77.2286 13.105 77.0843 13.9292 76.8577 14.9182C76.631 15.9073 76.2189 17.0818 75.6008 18.4211ZM83.2865 25.3033C83.0599 25.6536 82.8332 25.6948 82.6478 25.6948C82.4211 25.6536 82.2563 25.5712 82.1532 25.4063C81.9884 25.1797 81.8854 24.8912 81.8236 24.5409C81.7617 24.17 81.7411 23.7579 81.7617 23.3046C81.7617 23.1604 81.7823 22.9955 81.7823 22.8513C81.9678 23.0367 82.1944 23.2222 82.4005 23.4076C82.8126 23.7373 83.2659 23.9846 83.7811 24.1494C83.6574 24.6027 83.4926 24.9942 83.2865 25.3033ZM84.2344 21.4089C84.1932 21.718 84.152 22.0477 84.1107 22.3774C83.6986 22.1919 83.3689 21.9653 83.1011 21.6974C82.7508 21.3471 82.5035 20.9762 82.3387 20.5847C82.1738 20.1932 82.0914 19.8017 82.0708 19.3896C82.0502 18.9775 82.0914 18.6066 82.1738 18.2769C82.2563 17.9678 82.3593 17.7206 82.5035 17.5351C82.6066 17.4115 82.6684 17.3703 82.689 17.3703C82.8744 17.3703 83.0599 17.4321 83.2247 17.5763C83.4308 17.7412 83.6162 17.9678 83.7811 18.2357C83.9459 18.5242 84.0901 18.8539 84.1932 19.2454C84.2962 19.6163 84.3374 20.0078 84.3374 20.3786C84.2962 20.6259 84.2756 20.9762 84.2344 21.4089ZM90.519 28.765C90.4572 28.765 90.3541 28.765 90.1893 28.7238C90.1069 28.7032 90.0245 28.662 89.9214 28.6002C89.8596 28.5383 89.7566 28.4147 89.633 28.1468C89.5711 27.982 89.4887 27.6935 89.4887 27.1166C89.4887 26.7869 89.6124 26.4366 89.839 26.1069C90.0039 25.8803 90.1893 25.6742 90.3954 25.4888C90.5396 25.6948 90.6838 25.9009 90.7869 26.1069C90.9517 26.3954 91.0135 26.6839 91.0135 26.9929C91.0135 27.9614 90.8487 28.3323 90.7662 28.4765C90.622 28.6826 90.5396 28.7444 90.519 28.765Z" fill="white"/>
<path d="M166.14 17.1024L166.099 17.0612L166.058 17.0406C165.913 16.9376 165.748 16.8964 165.542 16.8757C165.233 16.8345 164.945 16.9788 164.801 17.2466C164.389 17.906 163.832 18.6066 163.152 19.3484C162.534 20.0077 161.71 20.7083 160.659 21.4089C160.185 20.7495 159.773 20.0902 159.381 19.4514C158.949 18.7508 158.722 18.1121 158.681 17.5351C158.64 16.8757 158.64 16.3812 158.722 16.0309C158.825 15.5982 158.908 15.3716 158.969 15.2479C159.093 15.0213 159.155 14.9182 159.175 14.877C159.381 14.568 159.32 14.1971 159.031 13.9704C158.124 13.2286 157.403 13.311 156.95 13.5171C156.352 13.785 155.899 14.2795 155.569 15.0007C155.26 15.6806 155.096 16.4842 155.054 17.3909C155.034 17.7412 155.054 18.0915 155.096 18.4417C154.91 18.7302 154.683 19.0187 154.416 19.3072C154.045 19.7399 153.571 20.1108 153.076 20.4199C152.705 20.6465 152.273 20.7908 151.819 20.8526C151.881 20.4199 151.922 19.9871 151.964 19.5338C152.005 18.9569 152.046 18.3799 152.046 17.803C152.046 16.6697 151.902 15.6394 151.613 14.7328C151.325 13.8262 150.954 13.0432 150.521 12.4044C150.068 11.745 149.553 11.2299 148.955 10.859C148.358 10.4881 147.781 10.2615 147.224 10.1996H147.204C146.75 10.179 146.276 10.179 145.823 10.2408C145.329 10.3027 144.875 10.4263 144.463 10.653C144.03 10.8796 143.66 11.2093 143.371 11.6214C143.062 12.0335 142.897 12.5692 142.835 13.208C142.794 13.4553 142.815 13.785 142.877 14.1971C142.918 14.5474 143 14.9389 143.103 15.351C142.835 15.8455 142.568 16.4842 142.341 17.2672C142.094 18.1121 141.97 19.0805 141.97 20.152C141.97 20.2344 141.97 20.3168 141.97 20.3993C141.929 20.5641 141.867 20.7289 141.826 20.8938C141.599 21.6356 141.331 22.4392 141.043 23.2634C140.754 24.0876 140.445 24.85 140.136 25.5712C139.827 26.2718 139.497 26.9105 139.168 27.4669C138.879 27.9614 138.591 28.3117 138.323 28.4971C138.282 28.5177 138.261 28.5383 138.261 28.5383C138.24 28.5177 138.158 28.4765 138.055 28.3117C137.787 27.879 137.56 27.199 137.354 26.313C137.148 25.3857 136.963 24.273 136.839 22.9749C136.716 21.7386 136.633 20.4199 136.592 19.0805C136.86 18.6478 137.19 18.0709 137.56 17.4115C137.973 16.6697 138.385 15.8043 138.817 14.8358C139.229 13.8674 139.642 12.7959 140.033 11.642C140.425 10.4675 140.713 9.23119 140.919 7.95366C141.208 6.22282 141.269 4.92468 141.105 3.99745C140.94 3.029 140.672 2.34902 140.322 1.91631C139.93 1.44239 139.497 1.19513 139.003 1.15392C138.611 1.13331 138.323 1.13331 138.137 1.15392H138.096C137.973 1.17452 137.808 1.23634 137.602 1.31876C137.354 1.42179 137.087 1.60723 136.757 1.91631C136.468 2.20479 136.139 2.61689 135.809 3.17324C135.479 3.70897 135.15 4.45076 134.82 5.3574C134.49 6.26403 134.181 7.39732 133.893 8.75727C133.604 10.0966 133.316 11.745 133.068 13.6407C132.924 14.8358 132.821 15.9691 132.801 17.0406C132.677 17.2879 132.512 17.5969 132.327 17.9678C132.079 18.4211 131.75 18.8539 131.358 19.3072C130.987 19.7399 130.534 20.1108 130.019 20.4199C129.648 20.6465 129.215 20.7908 128.762 20.8526C128.824 20.4199 128.865 19.9871 128.906 19.5338C128.968 18.9569 128.989 18.3799 128.989 17.803C128.989 16.6697 128.844 15.6394 128.556 14.7328C128.267 13.8262 127.897 13.0432 127.464 12.4044C127.011 11.745 126.495 11.2299 125.898 10.859C125.3 10.4881 124.723 10.2615 124.167 10.1996H124.146C123.693 10.179 123.219 10.179 122.766 10.2408C122.271 10.3027 121.818 10.4263 121.406 10.653C120.973 10.8796 120.602 11.2093 120.314 11.6214C120.005 12.0335 119.84 12.5692 119.778 13.208C119.757 13.4553 119.757 13.785 119.819 14.1971C119.86 14.5474 119.943 14.9389 120.046 15.351C119.778 15.8455 119.51 16.4842 119.284 17.2672C119.098 17.8854 118.974 18.586 118.933 19.3484C118.871 19.1217 118.789 18.8951 118.707 18.689C118.439 17.9884 118.15 17.3703 117.8 16.8551C117.47 16.34 117.099 15.8867 116.708 15.5158C116.316 15.1449 115.925 14.8358 115.513 14.6092C114.812 14.1971 114.05 13.9086 113.246 13.7437C114.194 12.3014 114.895 10.8178 115.327 9.293C115.822 7.54155 115.987 5.93434 115.801 4.51258C115.616 3.0496 115.059 1.89571 114.173 1.05089C113.123 0.18547 111.845 -0.103004 110.258 0.206076C108.734 0.49455 107.477 1.0715 106.488 1.91631C105.54 2.74053 104.757 3.62655 104.221 4.57439C103.665 5.50163 103.294 6.42887 103.108 7.27369C102.923 8.13911 102.841 8.73666 102.861 9.10756V9.14877C102.923 9.60208 103.067 9.89056 103.273 10.076C103.459 10.2408 103.665 10.3439 103.912 10.3851C104.139 10.4263 104.407 10.3851 104.716 10.2821L105.107 10.1584L105.045 9.76693C104.901 8.77787 105.045 7.80942 105.457 6.90279C105.89 5.95495 106.446 5.11013 107.106 4.43016C107.6 3.93563 108.115 3.50292 108.631 3.15263C108.363 3.4411 108.136 3.87382 107.951 4.45076C107.662 5.31618 107.436 6.38766 107.229 7.66519C107.044 8.92211 106.879 10.3233 106.776 11.8481C106.653 13.3522 106.57 14.8564 106.529 16.3194C106.488 17.7618 106.446 19.1011 106.426 20.3374C106.405 21.4707 106.405 22.4804 106.405 23.2016C106.405 24.2524 106.488 25.0766 106.653 25.7154C106.817 26.3748 107.023 26.8693 107.291 27.2402C107.353 27.3226 107.415 27.405 107.477 27.4875C107.332 27.405 107.188 27.3226 107.044 27.2402C106.467 26.8693 105.911 26.3954 105.416 25.7978C104.922 25.2209 104.51 24.4791 104.2 23.6137L104.056 23.2016L103.644 23.284C103.459 23.3252 103.273 23.4282 103.108 23.5931L103.088 23.6137L103.067 23.6343C102.944 23.7991 102.861 23.9846 102.82 24.2318C102.758 24.4791 102.779 24.7882 102.882 25.2003C102.964 25.53 103.067 25.8803 103.191 26.2924C103.335 26.7457 103.603 27.2196 103.974 27.7141C104.345 28.188 104.86 28.6826 105.519 29.1565C106.179 29.6304 107.044 30.0837 108.115 30.4752H108.136C108.342 30.537 108.569 30.6195 108.795 30.7019C109.022 30.7843 109.269 30.8461 109.517 30.9079C110.073 31.0316 110.629 31.0934 111.186 31.0934C111.948 31.0934 112.69 30.9698 113.411 30.7431C114.668 30.3516 115.76 29.6716 116.687 28.7444C117.594 27.8378 118.315 26.7045 118.81 25.3857C119.057 24.7264 119.222 24.0464 119.284 23.3046C119.49 23.9846 119.778 24.6027 120.128 25.1385C120.561 25.8184 121.117 26.3542 121.777 26.7869C122.436 27.2196 123.219 27.4256 124.105 27.4256C125.3 27.4256 126.269 26.9517 126.99 26.0245C127.629 25.2209 128.103 24.1494 128.412 22.8513H128.721H128.762C129.483 22.7895 130.143 22.5422 130.781 22.1301C131.358 21.7386 131.894 21.2647 132.368 20.7495C132.533 20.5641 132.698 20.3786 132.862 20.1932C132.904 20.5229 132.924 20.832 132.965 21.141C133.275 23.2634 133.728 25.0354 134.325 26.4366C134.944 27.879 135.582 28.9092 136.283 29.6098C137.045 30.3722 137.663 30.7431 138.179 30.7431C138.673 30.7431 139.209 30.434 139.806 29.7747C140.322 29.1977 140.857 28.3529 141.393 27.2608C141.826 26.3748 142.258 25.3239 142.691 24.1082C142.856 24.4997 143.041 24.85 143.268 25.1797C143.701 25.8596 144.257 26.3954 144.917 26.8281C145.576 27.2608 146.359 27.4669 147.245 27.4669C148.44 27.4669 149.408 26.9929 150.13 26.0657C150.768 25.2621 151.242 24.1906 151.551 22.8925H151.86H151.902C152.623 22.8307 153.282 22.5834 153.921 22.1713C154.498 21.7798 155.034 21.3059 155.508 20.7908C155.611 20.6877 155.693 20.5847 155.796 20.4817C156.064 20.935 156.373 21.4089 156.744 21.8622C157.094 22.2949 157.445 22.7276 157.795 23.1604C157.156 23.5931 156.641 24.0876 156.249 24.6439C155.775 25.3239 155.446 26.1687 155.322 27.1372C155.24 27.6317 155.24 28.1674 155.343 28.7238C155.446 29.2801 155.652 29.8159 155.94 30.2898C156.249 30.7843 156.662 31.1964 157.156 31.5055C157.671 31.8352 158.31 32 159.052 32C159.732 32 160.37 31.8352 160.927 31.5261C161.463 31.217 161.916 30.8049 162.266 30.2898C162.616 29.7953 162.864 29.2183 163.029 28.5795C163.193 27.9614 163.255 27.302 163.235 26.6633V26.6426C163.173 26.0039 162.967 25.3239 162.616 24.6027C162.349 24.0464 162.04 23.49 161.689 22.9131C162.04 22.6864 162.41 22.4186 162.802 22.1095C163.276 21.7386 163.812 21.2647 164.389 20.6465C164.986 20.049 165.625 19.2866 166.284 18.3799C166.531 17.9678 166.511 17.4733 166.14 17.1024ZM136.695 13.1874C136.798 11.8687 136.983 10.6736 137.19 9.64329C137.581 8.01548 137.89 6.75855 138.137 5.79011C138.385 4.84226 138.591 4.14168 138.756 3.70897C138.797 3.60595 138.817 3.54413 138.859 3.46171C138.92 3.60595 139.003 3.89442 139.085 4.43016C139.188 5.11013 139.168 6.03737 139.023 7.19127C138.879 8.36577 138.529 9.80814 138.014 11.4566C137.663 12.5692 137.19 13.785 136.592 15.1037C136.613 14.4649 136.654 13.8056 136.695 13.1874ZM110.938 2.32842C111.557 2.41084 111.948 2.69931 112.134 3.21445C112.36 3.85321 112.422 4.71863 112.34 5.7695C112.278 6.44948 112.072 7.25308 111.763 8.13911C111.433 9.04574 111.083 9.93177 110.712 10.756C110.382 11.4772 110.073 12.1159 109.785 12.6517C109.805 12.4868 109.805 12.322 109.826 12.1777C109.929 10.7972 110.032 9.54027 110.155 8.40698C110.279 7.29429 110.382 6.38766 110.485 5.7489V5.72829C110.568 5.02771 110.609 4.51258 110.629 4.14168C110.65 3.70897 110.609 3.39989 110.526 3.17324C110.32 2.69931 109.97 2.6581 109.826 2.6581C109.723 2.6581 109.599 2.67871 109.455 2.69931C110.052 2.39024 110.547 2.2666 110.938 2.32842ZM115.575 23.387C115.533 24.1906 115.369 24.9736 115.101 25.7154C114.853 26.4366 114.462 27.0548 113.967 27.5905C113.493 28.085 112.917 28.3735 112.175 28.4971C112.113 28.4971 111.989 28.4971 111.66 28.5177C111.351 28.5383 110.938 28.4971 110.464 28.4353C110.094 28.3735 109.681 28.2911 109.249 28.1674C109.537 28.1262 109.785 27.9202 109.908 27.6111C110.011 27.3638 110.052 26.9723 110.032 26.3954C110.011 25.9009 109.949 25.2003 109.888 24.3143C109.805 23.4488 109.743 22.2743 109.661 20.8526C109.578 19.4514 109.558 17.9884 109.599 16.5049C109.599 16.2576 109.62 16.0103 109.62 15.7631C109.661 15.7837 109.702 15.8043 109.743 15.8249C109.949 15.9073 110.155 15.9485 110.341 15.9485C110.506 15.9485 110.671 15.9279 110.794 15.8867C110.897 15.8661 111 15.8249 111.124 15.7837C111.186 15.7631 111.289 15.7425 111.392 15.7219C111.474 15.7012 111.618 15.7012 111.886 15.7012C111.907 15.7012 112.113 15.7219 112.607 16.1134C112.999 16.4224 113.411 16.8551 113.803 17.3703C114.215 17.906 114.586 18.5036 114.936 19.1629C115.266 19.8017 115.451 20.4611 115.533 21.141C115.616 21.8004 115.636 22.5628 115.575 23.387ZM125.197 24.6851C124.765 25.3239 124.332 25.3857 124.023 25.3651C123.611 25.3033 123.322 25.1179 123.096 24.8088C122.848 24.4379 122.663 23.964 122.56 23.4282C122.457 22.8513 122.416 22.2125 122.457 21.5325C122.477 21.1204 122.498 20.7083 122.539 20.3374C122.931 20.7495 123.343 21.141 123.817 21.5119C124.455 22.0271 125.197 22.4186 126.021 22.6452C125.836 23.4694 125.548 24.1494 125.197 24.6851ZM126.64 18.7714C126.578 19.3278 126.495 19.9047 126.413 20.5435C125.651 20.2344 125.012 19.8429 124.538 19.3484C124.002 18.8126 123.59 18.2151 123.343 17.6175C123.096 16.9994 122.951 16.3812 122.931 15.7425C122.91 15.1037 122.951 14.5061 123.096 14.0116C123.219 13.5171 123.384 13.1256 123.611 12.8165C123.734 12.6723 123.899 12.4868 124.064 12.4868C124.414 12.4868 124.723 12.6105 125.012 12.8371C125.342 13.105 125.651 13.4553 125.898 13.888C126.166 14.3413 126.372 14.8564 126.537 15.454C126.681 16.0515 126.763 16.6285 126.763 17.226C126.743 17.5763 126.701 18.0915 126.64 18.7714ZM148.316 24.6851C147.884 25.3239 147.451 25.3857 147.142 25.3651C146.73 25.3033 146.441 25.1179 146.215 24.8088C145.967 24.4379 145.782 23.964 145.679 23.4282C145.576 22.8513 145.535 22.2125 145.576 21.5325C145.596 21.1204 145.617 20.7083 145.658 20.3374C146.05 20.7495 146.462 21.141 146.936 21.5119C147.575 22.0271 148.316 22.4186 149.141 22.6452C148.955 23.4694 148.667 24.1494 148.316 24.6851ZM149.759 18.7714C149.697 19.3278 149.615 19.9047 149.532 20.5435C148.77 20.2344 148.131 19.8429 147.657 19.3484C147.121 18.8126 146.709 18.2151 146.462 17.6175C146.215 16.9994 146.07 16.3812 146.05 15.7425C146.029 15.1037 146.07 14.5061 146.215 14.0116C146.338 13.5171 146.503 13.1256 146.73 12.8165C146.853 12.6723 147.018 12.4868 147.183 12.4868C147.533 12.4868 147.842 12.6105 148.131 12.8371C148.461 13.105 148.749 13.4553 149.017 13.888C149.285 14.3413 149.491 14.8564 149.656 15.454C149.8 16.0515 149.882 16.6285 149.882 17.226C149.862 17.5763 149.821 18.0915 149.759 18.7714ZM158.949 29.9807C158.866 29.9807 158.701 29.9807 158.392 29.9189C158.228 29.8983 158.042 29.8159 157.877 29.6716C157.692 29.5274 157.527 29.2595 157.383 28.9092C157.238 28.5383 157.156 27.982 157.156 27.2814C157.156 26.7251 157.341 26.1893 157.733 25.633C158.042 25.1797 158.413 24.8088 158.804 24.4997C159.093 24.8912 159.34 25.2827 159.567 25.6536C159.814 26.1069 159.938 26.5808 159.938 27.0754C159.938 28.5177 159.711 29.1565 159.505 29.4244C159.217 29.8571 159.011 29.9807 158.949 29.9807Z" fill="white"/>
</g>
<defs>
<clipPath id="clip0_2410_118">
<rect width="166.429" height="32" fill="white"/>
</clipPath>
</defs>
</svg>
